<svg width="4400" height="2475" xmlns="http://www.w3.org/2000/svg" xmlns:xlink="http://www.w3.org/1999/xlink" xml:space="preserve" overflow="hidden"><g><rect x="0" y="0" width="4400" height="2475" fill="#D1D5D8"/><path d="M4147.59 2372.56C4162.61 2372.21 4177.08 2380.71 4183.64 2395.27 4192.38 2414.67 4183.74 2437.49 4164.33 2446.24 4144.93 2454.98 4122.11 2446.33 4113.36 2426.93 4104.62 2407.52 4113.26 2384.71 4132.67 2375.96 4137.52 2373.78 4142.59 2372.68 4147.59 2372.56ZM2963.28 2356.35C2979.24 2354.14 2995.69 2361.43 3004.46 2376.13 3016.15 2395.74 3009.73 2421.1 2990.12 2432.79 2970.52 2444.48 2945.15 2438.06 2933.47 2418.45 2921.78 2398.85 2928.2 2373.48 2947.8 2361.8 2952.7 2358.88 2957.97 2357.08 2963.28 2356.35ZM2050.13 2296.46C2067.45 2295.71 2084.34 2305.18 2092.25 2321.82 2102.79 2344 2093.35 2370.53 2071.17 2381.07 2048.98 2391.61 2022.45 2382.17 2011.91 2359.99 2001.37 2337.8 2010.81 2311.28 2033 2300.74 2038.54 2298.1 2044.36 2296.71 2050.13 2296.46ZM2667.96 2280.62C2683.91 2278.41 2700.37 2285.7 2709.14 2300.4 2720.83 2320.01 2714.41 2345.37 2694.8 2357.06 2675.2 2368.75 2649.83 2362.33 2638.15 2342.72 2626.46 2323.12 2632.88 2297.75 2652.48 2286.07 2657.38 2283.15 2662.64 2281.36 2667.96 2280.62ZM3882.03 2271C3897.05 2270.65 3911.52 2279.15 3918.08 2293.7 3926.82 2313.11 3918.18 2335.93 3898.77 2344.67 3879.37 2353.41 3856.55 2344.77 3847.81 2325.37 3839.06 2305.96 3847.71 2283.14 3867.11 2274.4 3871.96 2272.21 3877.03 2271.11 3882.03 2271ZM1741.38 2185.49C1758.69 2184.74 1775.59 2194.21 1783.5 2210.84 1794.04 2233.03 1784.6 2259.56 1762.41 2270.1 1740.23 2280.64 1713.7 2271.2 1703.16 2249.01 1692.62 2226.83 1702.06 2200.3 1724.24 2189.76 1729.79 2187.12 1735.61 2185.74 1741.38 2185.49ZM496.141 2170.24C507.092 2171.13 517.701 2176.2 525.373 2185.24 540.718 2203.32 538.505 2230.41 520.429 2245.75 502.353 2261.1 475.261 2258.89 459.916 2240.81 444.57 2222.73 446.784 2195.64 464.86 2180.3 473.898 2172.62 485.19 2169.34 496.141 2170.24ZM180.544 2143.43C191.495 2144.33 202.104 2149.4 209.777 2158.44 225.122 2176.51 222.908 2203.61 204.833 2218.95 186.757 2234.3 159.664 2232.08 144.319 2214.01 128.974 2195.93 131.188 2168.84 149.264 2153.49 158.302 2145.82 169.593 2142.54 180.544 2143.43ZM4247.46 2106.36C4262.47 2106.01 4276.94 2114.51 4283.5 2129.07 4292.25 2148.47 4283.6 2171.29 4264.2 2180.03 4244.79 2188.78 4221.97 2180.13 4213.23 2160.73 4204.49 2141.32 4213.13 2118.5 4232.53 2109.76 4237.39 2107.57 4242.45 2106.48 4247.46 2106.36ZM4062.62 2098.76C4112.67 2097.6 4160.92 2125.93 4182.78 2174.45 4211.92 2239.13 4183.11 2315.2 4118.42 2344.34 4053.74 2373.48 3977.67 2344.67 3948.53 2279.98 3919.39 2215.3 3948.2 2139.24 4012.89 2110.09 4029.06 2102.81 4045.94 2099.14 4062.62 2098.76ZM2865.89 2073.98C2910.04 2076.48 2952.2 2100.15 2976.54 2140.99 3015.5 2206.34 2994.11 2290.89 2928.76 2329.85 2863.41 2368.81 2778.86 2347.41 2739.9 2282.06 2700.95 2216.72 2722.34 2132.16 2787.69 2093.21 2812.19 2078.6 2839.4 2072.48 2865.89 2073.98ZM3037.12 2060.55C3053.08 2058.34 3069.54 2065.63 3078.3 2080.33 3089.99 2099.94 3083.57 2125.3 3063.96 2136.99 3044.36 2148.68 3018.99 2142.26 3007.31 2122.65 2995.62 2103.05 3002.04 2077.68 3021.64 2066 3026.54 2063.08 3031.81 2061.29 3037.12 2060.55ZM3981.9 2004.8C3996.91 2004.45 4011.39 2012.95 4017.94 2027.5 4026.69 2046.91 4018.04 2069.73 3998.64 2078.47 3979.23 2087.21 3956.41 2078.57 3947.67 2059.16 3938.93 2039.76 3947.57 2016.94 3966.98 2008.2 3971.83 2006.01 3976.89 2004.91 3981.9 2004.8ZM2159.13 1987.01C2176.45 1986.26 2193.34 1995.72 2201.25 2012.36 2211.79 2034.55 2202.35 2061.08 2180.17 2071.62 2157.98 2082.16 2131.45 2072.72 2120.91 2050.53 2110.37 2028.35 2119.81 2001.82 2142 1991.28 2147.54 1988.64 2153.36 1987.26 2159.13 1987.01ZM2741.8 1984.82C2757.75 1982.62 2774.21 1989.9 2782.98 2004.6 2794.67 2024.21 2788.25 2049.57 2768.64 2061.26 2749.04 2072.95 2723.67 2066.53 2711.99 2046.93 2700.3 2027.32 2706.72 2001.96 2726.32 1990.27 2731.22 1987.35 2736.48 1985.56 2741.8 1984.82ZM1945.71 1982.55C2003.42 1980.05 2059.75 2011.61 2086.1 2067.07 2121.23 2141.02 2089.77 2229.45 2015.82 2264.58 1941.87 2299.72 1853.44 2268.25 1818.31 2194.3 1783.17 2120.36 1814.64 2031.93 1888.59 1996.79 1907.08 1988.01 1926.47 1983.39 1945.71 1982.55ZM3704.58 1969.93C3716.22 1971.31 3727.34 1977.13 3735.17 1987.07 3750.83 2006.94 3747.41 2035.74 3727.54 2051.41 3707.67 2067.07 3678.87 2063.65 3663.21 2043.78 3647.55 2023.91 3650.96 1995.11 3670.83 1979.45 3680.77 1971.61 3692.93 1968.55 3704.58 1969.93ZM3369.08 1929.09C3380.72 1930.47 3391.84 1936.29 3399.67 1946.23 3415.33 1966.1 3411.92 1994.9 3392.05 2010.56 3372.18 2026.23 3343.37 2022.81 3327.71 2002.94 3312.05 1983.07 3315.46 1954.27 3335.34 1938.61 3345.27 1930.78 3357.44 1927.71 3369.08 1929.09ZM358.893 1899.11C395.396 1902.09 430.76 1919 456.336 1949.13 507.485 2009.38 500.106 2099.69 439.854 2150.84 379.602 2201.99 289.292 2194.61 238.142 2134.36 186.992 2074.11 194.371 1983.8 254.624 1932.65 284.75 1907.07 322.391 1896.13 358.893 1899.11ZM1135.75 1879.34C1147.06 1878.13 1158.84 1881.24 1168.4 1888.95 1187.51 1904.37 1190.51 1932.37 1175.08 1951.48 1159.66 1970.59 1131.67 1973.59 1112.55 1958.17 1093.44 1942.75 1090.44 1914.75 1105.87 1895.64 1113.58 1886.08 1124.43 1880.55 1135.75 1879.34ZM1850.38 1876.03C1867.69 1875.28 1884.59 1884.75 1892.5 1901.39 1903.04 1923.57 1893.6 1950.1 1871.41 1960.64 1849.23 1971.18 1822.7 1961.74 1812.16 1939.56 1801.62 1917.37 1811.06 1890.84 1833.24 1880.3 1838.79 1877.67 1844.61 1876.28 1850.38 1876.03ZM520.926 1854.47C531.876 1855.37 542.486 1860.44 550.158 1869.48 565.503 1887.56 563.289 1914.65 545.214 1929.99 527.138 1945.34 500.045 1943.12 484.7 1925.05 469.355 1906.97 471.569 1879.88 489.645 1864.54 498.682 1856.86 509.975 1853.58 520.926 1854.47ZM1462.07 1845.5C1473.38 1844.29 1485.16 1847.39 1494.72 1855.11 1513.83 1870.53 1516.83 1898.52 1501.41 1917.64 1485.99 1936.75 1457.99 1939.75 1438.87 1924.32 1419.76 1908.9 1416.77 1880.91 1432.19 1861.79 1439.9 1852.24 1450.75 1846.71 1462.07 1845.5ZM205.329 1827.67C216.281 1828.57 226.89 1833.64 234.562 1842.68 249.907 1860.75 247.693 1887.85 229.618 1903.19 211.542 1918.54 184.449 1916.32 169.104 1898.25 153.759 1880.17 155.973 1853.08 174.049 1837.73 183.087 1830.06 194.379 1826.78 205.329 1827.67ZM3539.46 1674.83C3588.35 1671.24 3638.09 1691.21 3670.72 1732.61 3722.92 1798.85 3711.55 1894.86 3645.31 1947.06 3579.07 1999.27 3483.06 1987.89 3430.85 1921.65 3378.65 1855.42 3390.03 1759.4 3456.26 1707.2 3481.1 1687.62 3510.13 1676.99 3539.46 1674.83ZM3743.27 1634.18C3754.91 1635.56 3766.03 1641.38 3773.86 1651.32 3789.52 1671.19 3786.11 1700 3766.24 1715.66 3746.37 1731.32 3717.56 1727.9 3701.9 1708.03 3686.24 1688.16 3689.65 1659.36 3709.52 1643.7 3719.46 1635.87 3731.63 1632.8 3743.27 1634.18ZM2708.26 1625.37C2721.1 1626.89 2733.36 1633.31 2741.99 1644.27 2759.26 1666.18 2755.49 1697.94 2733.59 1715.2 2711.68 1732.47 2679.92 1728.71 2662.65 1706.8 2645.38 1684.89 2649.15 1653.13 2671.05 1635.86 2682.01 1627.23 2695.43 1623.85 2708.26 1625.37ZM1298.35 1595.89C1326.8 1598.3 1354.85 1608.95 1378.75 1628.22 1442.46 1679.63 1452.44 1772.95 1401.04 1836.66 1349.63 1900.38 1256.31 1910.36 1192.6 1858.95 1128.88 1807.55 1118.9 1714.23 1170.31 1650.51 1202.43 1610.69 1250.94 1591.86 1298.35 1595.89ZM3407.78 1593.34C3419.42 1594.72 3430.54 1600.54 3438.37 1610.48 3454.03 1630.35 3450.61 1659.16 3430.74 1674.82 3410.87 1690.48 3382.07 1687.06 3366.41 1667.19 3350.75 1647.32 3354.16 1618.52 3374.03 1602.86 3383.97 1595.03 3396.14 1591.96 3407.78 1593.34ZM2338.35 1580.34C2351.19 1581.87 2363.45 1588.28 2372.08 1599.24 2389.35 1621.15 2385.58 1652.91 2363.68 1670.17 2341.77 1687.44 2310.01 1683.68 2292.74 1661.77 2275.47 1639.86 2279.24 1608.1 2301.15 1590.83 2312.1 1582.2 2325.52 1578.82 2338.35 1580.34ZM1099.82 1553.24C1111.13 1552.03 1122.91 1555.14 1132.47 1562.85 1151.58 1578.27 1154.58 1606.27 1139.16 1625.38 1123.74 1644.5 1095.74 1647.49 1076.63 1632.07 1057.51 1616.65 1054.52 1588.65 1069.94 1569.54 1077.65 1559.98 1088.5 1554.45 1099.82 1553.24ZM1426.14 1519.4C1437.46 1518.19 1449.23 1521.3 1458.79 1529.01 1477.91 1544.43 1480.9 1572.43 1465.48 1591.54 1450.06 1610.65 1422.06 1613.65 1402.95 1598.23 1383.83 1582.81 1380.84 1554.81 1396.26 1535.69 1403.97 1526.14 1414.82 1520.61 1426.14 1519.4ZM4203.09 1497.51C4219.69 1497.1 4235.71 1506.47 4242.99 1522.55 4252.69 1543.99 4243.18 1569.23 4221.74 1578.93 4200.3 1588.64 4175.06 1579.12 4165.35 1557.69 4155.65 1536.25 4165.16 1511 4186.6 1501.3 4191.96 1498.88 4197.56 1497.65 4203.09 1497.51ZM3909.3 1385.73C3925.9 1385.32 3941.92 1394.69 3949.2 1410.76 3958.9 1432.2 3949.39 1457.45 3927.95 1467.15 3906.51 1476.85 3881.27 1467.34 3871.57 1445.9 3861.86 1424.46 3871.38 1399.22 3892.81 1389.52 3898.17 1387.09 3903.77 1385.87 3909.3 1385.73ZM2526.21 1300C2580.12 1296.04 2634.96 1318.06 2670.93 1363.71 2728.49 1436.74 2715.95 1542.6 2642.92 1600.16 2569.88 1657.72 2464.02 1645.17 2406.46 1572.14 2348.9 1499.11 2361.45 1393.25 2434.48 1335.69 2461.87 1314.1 2493.87 1302.38 2526.21 1300ZM2750.93 1255.18C2763.76 1256.7 2776.02 1263.12 2784.65 1274.08 2801.92 1295.99 2798.16 1327.75 2776.25 1345.01 2754.34 1362.28 2722.58 1358.52 2705.31 1336.61 2688.05 1314.7 2691.81 1282.94 2713.72 1265.67 2724.67 1257.04 2738.09 1253.66 2750.93 1255.18ZM2381.02 1210.15C2393.85 1211.68 2406.11 1218.09 2414.75 1229.05 2432.01 1250.96 2428.25 1282.72 2406.34 1299.98 2384.43 1317.25 2352.67 1313.49 2335.4 1291.58 2318.14 1269.67 2321.9 1237.91 2343.81 1220.64 2354.76 1212.01 2368.18 1208.63 2381.02 1210.15ZM4313 1203.02C4329.59 1202.6 4345.61 1211.97 4352.89 1228.05 4362.59 1249.49 4353.08 1274.74 4331.64 1284.44 4310.21 1294.14 4284.96 1284.63 4275.26 1263.19 4265.56 1241.75 4275.07 1216.51 4296.51 1206.8 4301.87 1204.38 4307.46 1203.15 4313 1203.02ZM4108.63 1194.96C4163.96 1193.59 4217.36 1224.82 4241.62 1278.42 4273.96 1349.88 4242.25 1434.02 4170.79 1466.37 4099.33 1498.71 4015.18 1467 3982.84 1395.54 3950.5 1324.08 3982.21 1239.93 4053.67 1207.59 4071.53 1199.5 4090.19 1195.42 4108.63 1194.96ZM3482.52 1168.47C3494.37 1169.87 3505.69 1175.8 3513.66 1185.91 3529.6 1206.14 3526.12 1235.45 3505.9 1251.39 3485.67 1267.33 3456.36 1263.86 3440.42 1243.63 3424.48 1223.41 3427.95 1194.09 3448.18 1178.15 3458.29 1170.18 3470.67 1167.07 3482.52 1168.47ZM371.851 1130.73C384.704 1129.35 398.082 1132.88 408.937 1141.64 430.648 1159.15 434.049 1190.96 416.533 1212.67 399.017 1234.38 367.217 1237.78 345.506 1220.26 323.795 1202.75 320.394 1170.95 337.91 1149.23 346.668 1138.38 358.997 1132.1 371.851 1130.73ZM1589.99 1127.27C1595.11 1127.93 1600.19 1129.6 1604.94 1132.35 1623.97 1143.36 1630.55 1167.54 1619.66 1186.37 1608.77 1205.19 1584.52 1211.52 1565.49 1200.52 1546.47 1189.51 1539.88 1165.32 1550.78 1146.5 1558.95 1132.38 1574.63 1125.29 1589.99 1127.27ZM3141.06 1126.9C3152.91 1128.31 3164.23 1134.23 3172.2 1144.35 3188.13 1164.57 3184.66 1193.89 3164.44 1209.83 3144.21 1225.77 3114.9 1222.29 3098.96 1202.07 3083.02 1181.84 3086.49 1152.53 3106.71 1136.59 3116.83 1128.62 3129.21 1125.5 3141.06 1126.9ZM742.503 1092.29C755.356 1090.91 768.734 1094.44 779.59 1103.2 801.301 1120.71 804.701 1152.52 787.185 1174.23 769.669 1195.94 737.869 1199.34 716.158 1181.82 694.447 1164.31 691.047 1132.51 708.563 1110.79 717.321 1099.94 729.649 1093.66 742.503 1092.29ZM4019.21 1091.23C4035.81 1090.82 4051.83 1100.19 4059.1 1116.27 4068.81 1137.71 4059.29 1162.95 4037.86 1172.65 4016.42 1182.36 3991.17 1172.84 3981.47 1151.41 3971.77 1129.97 3981.28 1104.72 4002.72 1095.02 4008.08 1092.59 4013.68 1091.37 4019.21 1091.23ZM1872.8 1054.36C1877.92 1055.02 1883 1056.68 1887.76 1059.44 1906.78 1070.44 1913.36 1094.63 1902.47 1113.45 1891.58 1132.27 1867.33 1138.61 1848.31 1127.6 1829.28 1116.59 1822.7 1092.41 1833.59 1073.59 1841.76 1059.47 1857.44 1052.38 1872.8 1054.36ZM3314.47 868.122C3364.23 864.467 3414.86 884.791 3448.06 926.926 3501.2 994.341 3489.62 1092.06 3422.2 1145.2 3354.79 1198.33 3257.06 1186.75 3203.93 1119.33 3150.8 1051.92 3162.38 954.195 3229.79 901.063 3255.08 881.139 3284.62 870.314 3314.47 868.122ZM1678.12 857.852C1703.53 856.207 1729.76 861.837 1753.54 875.598 1816.94 912.293 1838.9 992.903 1802.59 1055.65 1766.28 1118.39 1685.44 1139.51 1622.04 1102.81 1558.63 1066.12 1536.67 985.507 1572.98 922.763 1595.68 883.549 1635.77 860.594 1678.12 857.852ZM1512.32 845.729C1517.43 846.389 1522.52 848.057 1527.27 850.809 1546.29 861.818 1552.88 886.001 1541.99 904.824 1531.09 923.647 1506.84 929.982 1487.82 918.974 1468.8 907.965 1462.21 883.782 1473.11 864.959 1481.28 850.842 1496.96 843.749 1512.32 845.729ZM3521.91 826.75C3533.76 828.154 3545.07 834.078 3553.04 844.191 3568.98 864.415 3565.51 893.732 3545.28 909.671 3525.06 925.611 3495.74 922.137 3479.8 901.913 3463.86 881.688 3467.34 852.371 3487.56 836.432 3497.67 828.462 3510.06 825.346 3521.91 826.75ZM556.543 808.763C588.856 811.507 620.724 823.598 647.863 845.493 720.233 903.88 731.569 1009.88 673.182 1082.25 614.795 1154.62 508.795 1165.96 436.425 1107.57 364.054 1049.18 352.718 943.182 411.105 870.812 447.597 825.58 502.688 804.191 556.543 808.763ZM3180.45 785.183C3192.29 786.588 3203.61 792.512 3211.58 802.625 3227.52 822.849 3224.04 852.166 3203.82 868.105 3183.6 884.044 3154.28 880.571 3138.34 860.346 3122.4 840.122 3125.87 810.805 3146.1 794.866 3156.21 786.896 3168.6 783.779 3180.45 785.183ZM1795.13 772.816C1800.24 773.476 1805.33 775.144 1810.08 777.896 1829.1 788.904 1835.69 813.088 1824.8 831.91 1813.9 850.734 1789.65 857.068 1770.63 846.06 1751.61 835.052 1745.02 810.869 1755.92 792.046 1764.09 777.928 1779.77 770.835 1795.13 772.816ZM331.042 760.328C343.896 758.954 357.274 762.483 368.129 771.24 389.84 788.756 393.241 820.556 375.725 842.267 358.209 863.979 326.409 867.379 304.698 849.863 282.987 832.347 279.586 800.547 297.102 778.836 305.86 767.98 318.189 761.703 331.042 760.328ZM701.694 721.888C714.548 720.514 727.925 724.042 738.781 732.8 760.492 750.316 763.893 782.116 746.377 803.827 728.86 825.538 697.06 828.939 675.35 811.422 653.638 793.907 650.238 762.107 667.754 740.396 676.512 729.54 688.841 723.262 701.694 721.888ZM4001.64 708.691C4028.23 712.69 4046.55 737.493 4042.55 764.088 4038.55 790.683 4013.75 809.001 3987.15 805 3960.56 801.001 3942.24 776.198 3946.24 749.603 3950.24 723.007 3975.04 704.69 4001.64 708.691ZM2309.43 651.96C2333.02 654.358 2350.2 675.425 2347.8 699.014 2345.4 722.603 2324.33 739.782 2300.74 737.383 2277.16 734.985 2259.98 713.918 2262.38 690.329 2264.77 666.74 2285.84 649.561 2309.43 651.96ZM4289.95 494.34C4316.54 498.34 4334.86 523.143 4330.86 549.738 4326.86 576.333 4302.06 594.651 4275.46 590.651 4248.87 586.65 4230.55 561.848 4234.55 535.252 4238.55 508.657 4263.35 490.34 4289.95 494.34ZM2554.26 451.016C2577.85 453.414 2595.03 474.481 2592.63 498.07 2590.23 521.659 2569.16 538.838 2545.57 536.44 2521.98 534.041 2504.81 512.974 2507.2 489.385 2509.6 465.796 2530.67 448.617 2554.26 451.016ZM1328.61 442.965C1345.08 443.848 1360.21 454.374 1366.17 470.861 1374.11 492.844 1362.72 517.101 1340.74 525.04 1318.76 532.98 1294.5 521.595 1286.56 499.612 1278.62 477.629 1290 453.372 1311.99 445.433 1317.48 443.448 1323.12 442.671 1328.61 442.965ZM3376.91 436.669C3393.28 436.759 3408.79 446.475 3415.48 462.539 3424.4 483.958 3414.26 508.553 3392.85 517.474 3371.43 526.394 3346.83 516.262 3337.91 494.843 3328.99 473.423 3339.12 448.829 3360.54 439.908 3365.9 437.678 3371.45 436.639 3376.91 436.669ZM3789.14 419.016C3815.73 423.016 3834.05 447.819 3830.05 474.414 3826.05 501.009 3801.25 519.326 3774.65 515.327 3748.06 511.327 3729.74 486.524 3733.74 459.929 3737.74 433.333 3762.54 415.016 3789.14 419.016ZM137.299 411.687C140.76 411.308 144.26 411.432 147.683 412.081 152.249 412.947 156.679 414.748 160.704 417.54 176.805 428.708 180.325 451.504 168.566 468.457 156.807 485.41 134.222 490.099 118.122 478.932 102.021 467.764 98.5015 444.968 110.26 428.015 116.875 418.479 126.914 412.823 137.299 411.687ZM2110.06 405.852C2133.64 408.251 2150.82 429.318 2148.42 452.906 2146.03 476.496 2124.96 493.674 2101.37 491.276 2077.78 488.877 2060.6 467.81 2063 444.221 2065.4 420.632 2086.47 403.453 2110.06 405.852ZM400.318 356.193C403.78 355.815 407.279 355.938 410.703 356.588 415.268 357.453 419.699 359.254 423.724 362.046 439.824 373.214 443.344 396.01 431.585 412.963 419.826 429.916 397.242 434.606 381.141 423.438 365.041 412.27 361.521 389.474 373.28 372.521 379.894 362.985 389.933 357.329 400.318 356.193ZM4023.6 342.712C4034.37 342.146 4045.36 342.65 4056.44 344.316 4145.09 357.65 4206.15 440.325 4192.82 528.976 4179.48 617.627 4096.81 678.684 4008.16 665.351 3919.51 652.017 3858.45 569.343 3871.78 480.691 3883.45 403.121 3948.21 346.679 4023.6 342.712ZM2313.3 328.748C2322.76 327.794 2332.46 327.774 2342.29 328.773 2420.92 336.768 2478.18 406.991 2470.19 485.622 2462.19 564.252 2391.97 621.514 2313.34 613.519 2234.71 605.525 2177.45 535.301 2185.44 456.671 2192.44 387.869 2247.08 335.428 2313.3 328.748ZM3090.71 317.695C3107.08 317.785 3122.59 327.501 3129.28 343.565 3138.2 364.984 3128.06 389.579 3106.65 398.5 3085.23 407.42 3060.63 397.288 3051.71 375.869 3042.79 354.449 3052.92 329.854 3074.34 320.934 3079.7 318.704 3085.25 317.664 3090.71 317.695ZM1046.4 309.411C1062.87 310.294 1078 320.82 1083.96 337.307 1091.9 359.29 1080.51 383.547 1058.53 391.486 1036.54 399.426 1012.29 388.041 1004.35 366.058 996.409 344.075 1007.79 319.818 1029.78 311.879 1035.27 309.894 1040.91 309.117 1046.4 309.411ZM2354.88 204.909C2378.47 207.307 2395.65 228.374 2393.25 251.963 2390.85 275.552 2369.79 292.731 2346.2 290.332 2322.61 287.933 2305.43 266.867 2307.83 243.278 2310.23 219.688 2331.29 202.51 2354.88 204.909ZM4077.45 204.667C4104.04 208.667 4122.36 233.469 4118.36 260.064 4114.36 286.66 4089.56 304.977 4062.96 300.977 4036.37 296.977 4018.05 272.174 4022.05 245.579 4026.05 218.984 4050.85 200.667 4077.45 204.667ZM255.356 165.062C278.518 164.787 301.683 171.314 321.808 185.273 375.478 222.499 387.21 298.487 348.014 354.997 308.818 411.506 233.536 427.139 179.867 389.914 126.198 352.688 114.465 276.7 153.661 220.19 178.159 184.871 216.753 165.52 255.356 165.062ZM1460.36 159.907C1476.83 160.79 1491.96 171.315 1497.91 187.802 1505.85 209.785 1494.47 234.042 1472.49 241.981 1450.5 249.921 1426.25 238.536 1418.31 216.554 1410.37 194.571 1421.75 170.313 1443.73 162.374 1449.23 160.389 1454.87 159.612 1460.36 159.907ZM3494.05 149.714C3510.42 149.805 3525.93 159.52 3532.62 175.585 3541.54 197.004 3531.41 221.599 3509.99 230.52 3488.57 239.44 3463.97 229.308 3455.05 207.889 3446.13 186.469 3456.26 161.874 3477.68 152.954 3483.04 150.724 3488.59 149.684 3494.05 149.714ZM97.1283 145.896C100.59 145.517 104.09 145.64 107.513 146.29 112.079 147.156 116.509 148.956 120.534 151.748 136.635 162.916 140.154 185.712 128.396 202.665 116.637 219.618 94.052 224.308 77.9517 213.14 61.851 201.972 58.3313 179.176 70.09 162.223 76.7045 152.687 86.744 147.032 97.1283 145.896ZM1258.62 136.026C1313.52 138.969 1363.96 174.055 1383.81 229.012 1410.28 302.289 1372.33 383.145 1299.05 409.61 1225.77 436.074 1144.92 398.125 1118.45 324.849 1091.99 251.572 1129.94 170.716 1203.21 144.251 1221.53 137.635 1240.33 135.045 1258.62 136.026ZM3292.88 135.653C3347.45 135.954 3399.14 168.339 3421.44 221.887 3451.18 293.285 3417.4 375.269 3346 405.003 3274.61 434.738 3192.62 400.964 3162.89 329.567 3133.15 258.17 3166.93 176.186 3238.32 146.451 3256.17 139.017 3274.69 135.552 3292.88 135.653ZM360.148 90.402C363.609 90.0231 367.109 90.1466 370.533 90.7963 375.098 91.6621 379.529 93.4629 383.553 96.2546 399.654 107.422 403.174 130.219 391.415 147.172 379.656 164.125 357.072 168.814 340.971 157.647 324.87 146.479 321.351 123.683 333.109 106.73 339.724 97.1938 349.764 91.5377 360.148 90.402ZM3207.85 30.7408C3224.22 30.8311 3239.73 40.5465 3246.42 56.6111 3255.34 78.0302 3245.21 102.625 3223.79 111.546 3202.37 120.466 3177.77 110.334 3168.85 88.9147 3159.93 67.4958 3170.07 42.9006 3191.48 33.98 3196.84 31.7502 3202.39 30.7106 3207.85 30.7408ZM1178.15 26.3527C1194.62 27.2356 1209.75 37.7612 1215.7 54.2485 1223.64 76.2314 1212.26 100.488 1190.27 108.428 1168.29 116.367 1144.04 104.982 1136.1 82.9994 1128.16 61.0165 1139.54 36.7598 1161.52 28.8199 1167.02 26.8354 1172.66 26.0583 1178.15 26.3527Z" fill="#637BAE" fill-rule="evenodd" fill-opacity="0.301961"/><path d="M4147.59 2390.52C4162.61 2390.17 4177.08 2398.67 4183.64 2413.23 4192.38 2432.63 4183.74 2455.45 4164.33 2464.19 4144.93 2472.94 4122.11 2464.29 4113.36 2444.89 4104.62 2425.48 4113.27 2402.66 4132.67 2393.92 4137.52 2391.74 4142.59 2390.64 4147.59 2390.52ZM2963.28 2374.31C2979.24 2372.1 2995.7 2379.39 3004.46 2394.09 3016.15 2413.7 3009.73 2439.06 2990.12 2450.75 2970.52 2462.43 2945.15 2456.02 2933.47 2436.41 2921.78 2416.81 2928.2 2391.44 2947.8 2379.76 2952.7 2376.83 2957.97 2375.04 2963.28 2374.31ZM2050.13 2314.42C2067.45 2313.67 2084.34 2323.14 2092.25 2339.78 2102.79 2361.96 2093.35 2388.49 2071.17 2399.03 2048.98 2409.57 2022.45 2400.13 2011.91 2377.95 2001.37 2355.76 2010.81 2329.23 2033 2318.69 2038.54 2316.06 2044.36 2314.67 2050.13 2314.42ZM2667.96 2298.58C2683.91 2296.37 2700.37 2303.66 2709.14 2318.36 2720.83 2337.97 2714.41 2363.33 2694.8 2375.02 2675.2 2386.71 2649.83 2380.29 2638.15 2360.68 2626.46 2341.08 2632.88 2315.71 2652.48 2304.03 2657.38 2301.1 2662.64 2299.31 2667.96 2298.58ZM3882.03 2288.96C3897.05 2288.61 3911.52 2297.11 3918.08 2311.66 3926.82 2331.07 3918.18 2353.89 3898.77 2362.63 3879.37 2371.37 3856.55 2362.73 3847.81 2343.32 3839.06 2323.92 3847.71 2301.1 3867.11 2292.36 3871.96 2290.17 3877.03 2289.07 3882.03 2288.96ZM1741.38 2203.45C1758.69 2202.7 1775.59 2212.16 1783.5 2228.8 1794.04 2250.99 1784.6 2277.52 1762.41 2288.06 1740.23 2298.6 1713.7 2289.16 1703.16 2266.97 1692.62 2244.79 1702.06 2218.26 1724.24 2207.72 1729.79 2205.08 1735.61 2203.7 1741.38 2203.45ZM496.141 2188.19C507.092 2189.09 517.701 2194.16 525.374 2203.2 540.719 2221.27 538.505 2248.37 520.429 2263.71 502.354 2279.06 475.261 2276.84 459.916 2258.77 444.571 2240.69 446.785 2213.6 464.86 2198.25 473.898 2190.58 485.19 2187.3 496.141 2188.19ZM180.545 2161.39C191.495 2162.29 202.105 2167.36 209.777 2176.4 225.122 2194.47 222.909 2221.57 204.833 2236.91 186.757 2252.26 159.664 2250.04 144.32 2231.97 128.974 2213.89 131.188 2186.8 149.264 2171.45 158.302 2163.78 169.594 2160.5 180.545 2161.39ZM4247.46 2124.32C4262.47 2123.97 4276.95 2132.47 4283.5 2147.03 4292.25 2166.43 4283.6 2189.25 4264.2 2197.99 4244.79 2206.74 4221.97 2198.09 4213.23 2178.69 4204.49 2159.28 4213.13 2136.46 4232.54 2127.72 4237.39 2125.53 4242.45 2124.43 4247.46 2124.32ZM4062.62 2116.72C4112.67 2115.56 4160.92 2143.89 4182.78 2192.41 4211.92 2257.09 4183.11 2333.15 4118.42 2362.3 4053.74 2391.44 3977.67 2362.63 3948.53 2297.94 3919.39 2233.26 3948.2 2157.2 4012.89 2128.05 4029.06 2120.77 4045.94 2117.1 4062.62 2116.72ZM2865.89 2091.94C2910.04 2094.44 2952.2 2118.11 2976.54 2158.95 3015.5 2224.3 2994.11 2308.85 2928.76 2347.81 2863.41 2386.77 2778.86 2365.37 2739.9 2300.02 2700.95 2234.68 2722.34 2150.12 2787.69 2111.17 2812.19 2096.56 2839.4 2090.44 2865.89 2091.94ZM3037.12 2078.51C3053.08 2076.3 3069.54 2083.59 3078.3 2098.29 3089.99 2117.9 3083.57 2143.26 3063.96 2154.95 3044.36 2166.64 3018.99 2160.22 3007.31 2140.61 2995.62 2121.01 3002.04 2095.64 3021.64 2083.96 3026.54 2081.04 3031.81 2079.24 3037.12 2078.51ZM3981.9 2022.75C3996.91 2022.41 4011.39 2030.91 4017.94 2045.46 4026.69 2064.87 4018.04 2087.69 3998.64 2096.43 3979.23 2105.17 3956.41 2096.53 3947.67 2077.12 3938.93 2057.72 3947.57 2034.9 3966.98 2026.16 3971.83 2023.97 3976.89 2022.87 3981.9 2022.75ZM2159.13 2004.97C2176.45 2004.21 2193.34 2013.68 2201.25 2030.32 2211.79 2052.51 2202.35 2079.04 2180.17 2089.58 2157.98 2100.12 2131.45 2090.68 2120.91 2068.49 2110.37 2046.31 2119.81 2019.78 2142 2009.24 2147.54 2006.6 2153.36 2005.22 2159.13 2004.97ZM2741.8 2002.78C2757.75 2000.57 2774.21 2007.86 2782.98 2022.56 2794.67 2042.17 2788.25 2067.53 2768.64 2079.22 2749.04 2090.91 2723.67 2084.49 2711.99 2064.88 2700.3 2045.28 2706.72 2019.91 2726.32 2008.23 2731.22 2005.31 2736.48 2003.52 2741.8 2002.78ZM1945.71 2000.51C2003.42 1998.01 2059.75 2029.57 2086.1 2085.03 2121.23 2158.98 2089.77 2247.41 2015.82 2282.54 1941.87 2317.68 1853.44 2286.21 1818.31 2212.26 1783.17 2138.31 1814.64 2049.89 1888.59 2014.75 1907.08 2005.97 1926.47 2001.35 1945.71 2000.51ZM3704.58 1987.89C3716.22 1989.27 3727.34 1995.09 3735.17 2005.03 3750.83 2024.9 3747.41 2053.7 3727.54 2069.36 3707.67 2085.02 3678.87 2081.61 3663.21 2061.74 3647.55 2041.87 3650.96 2013.06 3670.83 1997.4 3680.77 1989.57 3692.93 1986.51 3704.58 1987.89ZM3369.08 1947.05C3380.73 1948.43 3391.84 1954.25 3399.67 1964.19 3415.33 1984.06 3411.92 2012.86 3392.05 2028.52 3372.18 2044.18 3343.37 2040.77 3327.71 2020.9 3312.05 2001.03 3315.46 1972.22 3335.34 1956.56 3345.27 1948.73 3357.44 1945.67 3369.08 1947.05ZM358.894 1917.07C395.396 1920.05 430.761 1936.96 456.336 1967.09 507.486 2027.34 500.107 2117.65 439.855 2168.8 379.602 2219.95 289.292 2212.57 238.143 2152.32 186.993 2092.06 194.372 2001.76 254.624 1950.61 284.75 1925.03 322.391 1914.09 358.894 1917.07ZM1135.75 1897.3C1147.06 1896.09 1158.84 1899.2 1168.4 1906.91 1187.51 1922.33 1190.51 1950.32 1175.09 1969.44 1159.66 1988.55 1131.67 1991.55 1112.55 1976.13 1093.44 1960.71 1090.45 1932.71 1105.87 1913.59 1113.58 1904.04 1124.43 1898.51 1135.75 1897.3ZM1850.38 1893.99C1867.69 1893.24 1884.59 1902.71 1892.5 1919.35 1903.04 1941.53 1893.6 1968.06 1871.41 1978.6 1849.23 1989.14 1822.7 1979.7 1812.16 1957.52 1801.62 1935.33 1811.06 1908.8 1833.24 1898.26 1838.79 1895.63 1844.61 1894.24 1850.38 1893.99ZM520.926 1872.43C531.877 1873.33 542.486 1878.4 550.158 1887.44 565.503 1905.51 563.29 1932.61 545.214 1947.95 527.138 1963.3 500.046 1961.08 484.701 1943.01 469.356 1924.93 471.569 1897.84 489.645 1882.49 498.683 1874.82 509.975 1871.54 520.926 1872.43ZM1462.07 1863.46C1473.38 1862.25 1485.16 1865.35 1494.72 1873.06 1513.83 1888.49 1516.83 1916.48 1501.41 1935.6 1485.99 1954.71 1457.99 1957.7 1438.87 1942.28 1419.76 1926.86 1416.77 1898.87 1432.19 1879.75 1439.9 1870.19 1450.75 1864.67 1462.07 1863.46ZM205.33 1845.63C216.281 1846.53 226.89 1851.6 234.562 1860.64 249.907 1878.71 247.694 1905.8 229.618 1921.15 211.542 1936.49 184.449 1934.28 169.105 1916.2 153.76 1898.13 155.974 1871.04 174.049 1855.69 183.087 1848.02 194.379 1844.74 205.33 1845.63ZM3539.46 1692.79C3588.35 1689.2 3638.09 1709.17 3670.72 1750.57 3722.92 1816.8 3711.55 1912.82 3645.31 1965.02 3579.07 2017.23 3483.06 2005.85 3430.85 1939.61 3378.65 1873.37 3390.03 1777.36 3456.27 1725.16 3481.1 1705.58 3510.13 1694.95 3539.46 1692.79ZM3743.27 1652.14C3754.91 1653.52 3766.03 1659.34 3773.86 1669.28 3789.52 1689.15 3786.11 1717.95 3766.24 1733.61 3746.37 1749.28 3717.56 1745.86 3701.9 1725.99 3686.24 1706.12 3689.65 1677.32 3709.53 1661.66 3719.46 1653.83 3731.63 1650.76 3743.27 1652.14ZM2708.26 1643.33C2721.1 1644.85 2733.36 1651.27 2741.99 1662.23 2759.26 1684.14 2755.5 1715.89 2733.59 1733.16 2711.68 1750.43 2679.92 1746.67 2662.65 1724.76 2645.38 1702.85 2649.15 1671.09 2671.06 1653.82 2682.01 1645.19 2695.43 1641.81 2708.26 1643.33ZM1298.35 1613.84C1326.8 1616.26 1354.85 1626.9 1378.75 1646.18 1442.46 1697.58 1452.44 1790.91 1401.04 1854.62 1349.63 1918.34 1256.31 1928.32 1192.6 1876.91 1128.88 1825.51 1118.9 1732.19 1170.31 1668.47 1202.43 1628.65 1250.94 1609.82 1298.35 1613.84ZM3407.78 1611.3C3419.42 1612.68 3430.54 1618.5 3438.37 1628.44 3454.03 1648.31 3450.61 1677.11 3430.74 1692.78 3410.87 1708.44 3382.07 1705.02 3366.41 1685.15 3350.75 1665.28 3354.16 1636.48 3374.03 1620.82 3383.97 1612.98 3396.14 1609.92 3407.78 1611.3ZM2338.35 1598.3C2351.19 1599.82 2363.45 1606.24 2372.08 1617.2 2389.35 1639.11 2385.59 1670.87 2363.68 1688.13 2341.77 1705.4 2310.01 1701.64 2292.74 1679.73 2275.47 1657.82 2279.24 1626.06 2301.15 1608.79 2312.1 1600.16 2325.52 1596.78 2338.35 1598.3ZM1099.82 1571.2C1111.14 1569.99 1122.91 1573.1 1132.47 1580.81 1151.58 1596.23 1154.58 1624.23 1139.16 1643.34 1123.74 1662.46 1095.74 1665.45 1076.63 1650.03 1057.51 1634.61 1054.52 1606.61 1069.94 1587.5 1077.65 1577.94 1088.5 1572.41 1099.82 1571.2ZM1426.14 1537.36C1437.46 1536.15 1449.23 1539.26 1458.79 1546.97 1477.91 1562.39 1480.9 1590.38 1465.48 1609.5 1450.06 1628.61 1422.06 1631.61 1402.95 1616.19 1383.83 1600.76 1380.84 1572.77 1396.26 1553.65 1403.97 1544.1 1414.82 1538.57 1426.14 1537.36ZM4203.09 1515.47C4219.69 1515.06 4235.71 1524.43 4242.99 1540.51 4252.69 1561.95 4243.18 1587.19 4221.74 1596.89 4200.3 1606.6 4175.06 1597.08 4165.35 1575.64 4155.65 1554.21 4165.16 1528.96 4186.6 1519.26 4191.96 1516.83 4197.56 1515.61 4203.09 1515.47ZM3909.3 1403.69C3925.9 1403.27 3941.92 1412.64 3949.2 1428.72 3958.9 1450.16 3949.39 1475.41 3927.95 1485.11 3906.51 1494.81 3881.27 1485.3 3871.57 1463.86 3861.86 1442.42 3871.38 1417.18 3892.81 1407.47 3898.17 1405.05 3903.77 1403.82 3909.3 1403.69ZM2526.21 1317.96C2580.12 1314 2634.96 1336.02 2670.93 1381.66 2728.49 1454.7 2715.95 1560.56 2642.92 1618.12 2569.88 1675.68 2464.02 1663.13 2406.46 1590.1 2348.9 1517.07 2361.45 1411.2 2434.48 1353.65 2461.87 1332.06 2493.87 1320.34 2526.21 1317.96ZM2750.93 1273.14C2763.76 1274.66 2776.02 1281.08 2784.65 1292.04 2801.92 1313.95 2798.16 1345.7 2776.25 1362.97 2754.34 1380.24 2722.58 1376.48 2705.31 1354.57 2688.05 1332.66 2691.81 1300.9 2713.72 1283.63 2724.67 1275 2738.09 1271.62 2750.93 1273.14ZM2381.02 1228.11C2393.86 1229.63 2406.11 1236.05 2414.75 1247.01 2432.01 1268.92 2428.25 1300.68 2406.34 1317.94 2384.43 1335.21 2352.67 1331.45 2335.4 1309.54 2318.14 1287.63 2321.9 1255.87 2343.81 1238.6 2354.76 1229.97 2368.18 1226.59 2381.02 1228.11ZM4313 1220.98C4329.59 1220.56 4345.61 1229.93 4352.89 1246.01 4362.59 1267.45 4353.08 1292.69 4331.64 1302.4 4310.21 1312.1 4284.96 1302.59 4275.26 1281.15 4265.56 1259.71 4275.07 1234.47 4296.51 1224.76 4301.87 1222.34 4307.46 1221.11 4313 1220.98ZM4108.63 1212.92C4163.96 1211.54 4217.36 1242.78 4241.62 1296.37 4273.96 1367.83 4242.25 1451.98 4170.79 1484.32 4099.33 1516.67 4015.18 1484.96 3982.84 1413.5 3950.5 1342.04 3982.21 1257.89 4053.67 1225.55 4071.53 1217.46 4090.19 1213.38 4108.63 1212.92ZM3482.52 1186.43C3494.37 1187.83 3505.69 1193.76 3513.66 1203.87 3529.6 1224.1 3526.12 1253.41 3505.9 1269.35 3485.68 1285.29 3456.36 1281.82 3440.42 1261.59 3424.48 1241.37 3427.95 1212.05 3448.18 1196.11 3458.29 1188.14 3470.68 1185.03 3482.52 1186.43ZM371.851 1148.69C384.705 1147.31 398.082 1150.84 408.938 1159.6 430.649 1177.11 434.049 1208.91 416.534 1230.63 399.017 1252.34 367.217 1255.74 345.506 1238.22 323.795 1220.7 320.395 1188.9 337.911 1167.19 346.669 1156.34 358.998 1150.06 371.851 1148.69ZM1589.99 1145.23C1595.11 1145.89 1600.19 1147.56 1604.94 1150.31 1623.97 1161.32 1630.55 1185.5 1619.66 1204.32 1608.77 1223.15 1584.52 1229.48 1565.49 1218.47 1546.47 1207.47 1539.88 1183.28 1550.78 1164.46 1558.95 1150.34 1574.63 1143.25 1589.99 1145.23ZM3141.06 1144.86C3152.91 1146.27 3164.23 1152.19 3172.2 1162.3 3188.14 1182.53 3184.66 1211.85 3164.44 1227.79 3144.21 1243.72 3114.9 1240.25 3098.96 1220.03 3083.02 1199.8 3086.49 1170.48 3106.72 1154.55 3116.83 1146.58 3129.21 1143.46 3141.06 1144.86ZM742.503 1110.25C755.357 1108.87 768.734 1112.4 779.59 1121.16 801.301 1138.67 804.701 1170.47 787.186 1192.18 769.67 1213.9 737.87 1217.3 716.159 1199.78 694.447 1182.26 691.047 1150.46 708.563 1128.75 717.321 1117.9 729.65 1111.62 742.503 1110.25ZM4019.21 1109.19C4035.81 1108.78 4051.83 1118.15 4059.1 1134.23 4068.81 1155.66 4059.29 1180.91 4037.86 1190.61 4016.42 1200.31 3991.17 1190.8 3981.47 1169.36 3971.77 1147.93 3981.28 1122.68 4002.72 1112.98 4008.08 1110.55 4013.68 1109.33 4019.21 1109.19ZM1872.8 1072.32C1877.92 1072.98 1883 1074.64 1887.76 1077.4 1906.78 1088.4 1913.37 1112.59 1902.47 1131.41 1891.58 1150.23 1867.33 1156.57 1848.31 1145.56 1829.28 1134.55 1822.7 1110.37 1833.59 1091.55 1841.76 1077.43 1857.44 1070.34 1872.8 1072.32ZM3314.47 886.08C3364.23 882.426 3414.86 902.75 3448.07 944.884 3501.2 1012.3 3489.62 1110.02 3422.2 1163.15 3354.79 1216.29 3257.06 1204.71 3203.93 1137.29 3150.8 1069.88 3162.38 972.154 3229.8 919.022 3255.08 899.097 3284.62 888.273 3314.47 886.08ZM1678.12 875.811C1703.53 874.166 1729.76 879.796 1753.54 893.557 1816.94 930.252 1838.91 1010.86 1802.59 1073.61 1766.28 1136.35 1685.44 1157.47 1622.04 1120.77 1558.63 1084.08 1536.67 1003.47 1572.98 940.722 1595.68 901.508 1635.77 878.553 1678.12 875.811ZM1512.32 863.688C1517.43 864.348 1522.52 866.016 1527.27 868.768 1546.29 879.777 1552.88 903.96 1541.99 922.783 1531.09 941.606 1506.84 947.941 1487.82 936.932 1468.8 925.924 1462.21 901.741 1473.11 882.918 1481.28 868.801 1496.96 861.708 1512.32 863.688ZM3521.91 844.708C3533.76 846.112 3545.07 852.037 3553.04 862.149 3568.98 882.374 3565.51 911.691 3545.28 927.63 3525.06 943.57 3495.74 940.096 3479.8 919.871 3463.86 899.647 3467.34 870.33 3487.56 854.391 3497.67 846.421 3510.06 843.304 3521.91 844.708ZM556.543 826.722C588.856 829.465 620.724 841.557 647.864 863.451 720.234 921.839 731.57 1027.84 673.182 1100.21 614.796 1172.58 508.795 1183.91 436.425 1125.53 364.054 1067.14 352.719 961.141 411.106 888.771 447.598 843.539 502.688 822.15 556.543 826.722ZM3180.45 803.142C3192.3 804.547 3203.61 810.471 3211.58 820.583 3227.52 840.808 3224.04 870.124 3203.82 886.064 3183.6 902.003 3154.28 898.53 3138.34 878.305 3122.4 858.08 3125.87 828.764 3146.1 812.825 3156.21 804.854 3168.6 801.738 3180.45 803.142ZM1795.13 790.774C1800.24 791.434 1805.33 793.102 1810.08 795.854 1829.1 806.863 1835.69 831.046 1824.8 849.869 1813.91 868.692 1789.65 875.027 1770.63 864.019 1751.61 853.011 1745.02 828.827 1755.92 810.004 1764.09 795.887 1779.77 788.794 1795.13 790.774ZM331.043 778.287C343.896 776.912 357.274 780.441 368.129 789.199 389.84 806.715 393.241 838.515 375.725 860.226 358.209 881.937 326.409 885.338 304.698 867.822 282.987 850.306 279.586 818.506 297.102 796.795 305.86 785.939 318.189 779.661 331.043 778.287ZM701.694 739.847C714.548 738.472 727.926 742.001 738.781 750.759 760.492 768.275 763.893 800.075 746.377 821.786 728.861 843.497 697.061 846.898 675.35 829.381 653.639 811.866 650.238 780.066 667.754 758.354 676.512 747.499 688.841 741.221 701.694 739.847ZM4001.64 726.649C4028.23 730.649 4046.55 755.452 4042.55 782.047 4038.55 808.642 4013.75 826.959 3987.15 822.959 3960.56 818.959 3942.24 794.156 3946.24 767.561 3950.24 740.966 3975.04 722.649 4001.64 726.649ZM2309.43 669.919C2333.02 672.317 2350.2 693.384 2347.8 716.973 2345.4 740.562 2324.33 757.74 2300.75 755.342 2277.16 752.944 2259.98 731.877 2262.38 708.287 2264.77 684.698 2285.84 667.52 2309.43 669.919ZM4289.95 512.299C4316.54 516.299 4334.86 541.101 4330.86 567.697 4326.86 594.292 4302.06 612.609 4275.46 608.609 4248.87 604.609 4230.55 579.807 4234.55 553.211 4238.55 526.616 4263.35 508.299 4289.95 512.299ZM2554.26 468.974C2577.85 471.373 2595.03 492.44 2592.63 516.029 2590.23 539.618 2569.16 556.797 2545.57 554.398 2521.98 552 2504.81 530.933 2507.2 507.344 2509.6 483.755 2530.67 466.576 2554.26 468.974ZM1328.61 460.924C1345.08 461.807 1360.21 472.333 1366.17 488.82 1374.11 510.803 1362.72 535.06 1340.74 542.999 1318.76 550.938 1294.5 539.554 1286.56 517.571 1278.62 495.588 1290 471.331 1311.99 463.391 1317.48 461.407 1323.12 460.63 1328.61 460.924ZM3376.91 454.627C3393.28 454.718 3408.79 464.433 3415.48 480.498 3424.4 501.917 3414.26 526.512 3392.85 535.432 3371.43 544.353 3346.83 534.221 3337.91 512.802 3328.99 491.382 3339.12 466.787 3360.54 457.867 3365.9 455.637 3371.45 454.598 3376.91 454.627ZM3789.14 436.975C3815.73 440.975 3834.05 465.778 3830.05 492.373 3826.05 518.968 3801.25 537.285 3774.65 533.285 3748.06 529.285 3729.74 504.483 3733.74 477.887 3737.74 451.292 3762.54 432.975 3789.14 436.975ZM137.299 429.646C140.76 429.267 144.26 429.391 147.684 430.04 152.249 430.906 156.68 432.707 160.704 435.499 176.805 446.666 180.325 469.463 168.566 486.416 156.807 503.369 134.223 508.058 118.122 496.891 102.022 485.723 98.5018 462.927 110.26 445.974 116.875 436.438 126.914 430.782 137.299 429.646ZM2110.06 423.811C2133.64 426.209 2150.82 447.276 2148.42 470.865 2146.03 494.454 2124.96 511.633 2101.37 509.234 2077.78 506.836 2060.6 485.769 2063 462.18 2065.4 438.591 2086.47 421.412 2110.06 423.811ZM400.318 374.152C403.78 373.773 407.28 373.897 410.703 374.546 415.269 375.412 419.699 377.213 423.724 380.005 439.825 391.172 443.344 413.969 431.585 430.922 419.827 447.875 397.242 452.564 381.141 441.397 365.041 430.229 361.521 407.433 373.28 390.48 379.894 380.944 389.934 375.288 400.318 374.152ZM4023.6 360.671C4034.37 360.104 4045.36 360.609 4056.44 362.275 4145.09 375.609 4206.15 458.284 4192.82 546.935 4179.48 635.586 4096.81 696.643 4008.16 683.309 3919.51 669.976 3858.45 587.302 3871.78 498.65 3883.45 421.08 3948.21 364.637 4023.6 360.671ZM2313.3 346.707C2322.76 345.753 2332.46 345.733 2342.29 346.732 2420.92 354.726 2478.18 424.95 2470.19 503.58 2462.19 582.211 2391.97 639.473 2313.34 631.478 2234.71 623.483 2177.45 553.26 2185.44 474.629 2192.44 405.828 2247.08 353.387 2313.3 346.707ZM3090.71 335.653C3107.08 335.744 3122.59 345.459 3129.28 361.524 3138.2 382.943 3128.06 407.538 3106.65 416.458 3085.23 425.379 3060.63 415.246 3051.71 393.828 3042.79 372.408 3052.92 347.813 3074.34 338.893 3079.7 336.663 3085.25 335.623 3090.71 335.653ZM1046.4 327.37C1062.87 328.253 1078 338.778 1083.96 355.266 1091.9 377.249 1080.51 401.506 1058.53 409.445 1036.54 417.385 1012.29 405.999 1004.35 384.017 996.409 362.034 1007.79 337.777 1029.78 329.838 1035.27 327.853 1040.91 327.076 1046.4 327.37ZM2354.88 222.867C2378.47 225.266 2395.65 246.333 2393.25 269.922 2390.85 293.51 2369.79 310.689 2346.2 308.291 2322.61 305.892 2305.43 284.825 2307.83 261.236 2310.23 237.647 2331.29 220.469 2354.88 222.867ZM4077.45 222.625C4104.04 226.626 4122.36 251.428 4118.36 278.023 4114.36 304.618 4089.56 322.936 4062.96 318.935 4036.37 314.936 4018.05 290.133 4022.05 263.538 4026.05 236.942 4050.85 218.625 4077.45 222.625ZM255.356 183.021C278.518 182.746 301.683 189.273 321.809 203.232 375.478 240.458 387.211 316.446 348.014 372.955 308.818 429.465 233.536 445.098 179.867 407.872 126.198 370.646 114.465 294.659 153.662 238.149 178.159 202.83 216.753 183.479 255.356 183.021ZM1460.36 177.865C1476.83 178.748 1491.96 189.274 1497.91 205.761 1505.85 227.744 1494.47 252.001 1472.49 259.94 1450.5 267.88 1426.25 256.495 1418.31 234.512 1410.37 212.529 1421.75 188.272 1443.74 180.333 1449.23 178.348 1454.87 177.571 1460.36 177.865ZM3494.05 167.673C3510.42 167.764 3525.93 177.479 3532.62 193.544 3541.54 214.963 3531.41 239.558 3509.99 248.478 3488.57 257.399 3463.97 247.266 3455.05 225.848 3446.13 204.428 3456.26 179.833 3477.68 170.913 3483.04 168.683 3488.59 167.643 3494.05 167.673ZM97.1287 163.854C100.59 163.475 104.09 163.599 107.514 164.248 112.079 165.114 116.509 166.915 120.535 169.707 136.635 180.875 140.155 203.671 128.396 220.624 116.637 237.577 94.0524 242.266 77.952 231.099 61.8513 219.931 58.3317 197.135 70.0903 180.182 76.7048 170.646 86.7444 164.99 97.1287 163.854ZM1258.62 153.984C1313.52 156.928 1363.96 192.013 1383.81 246.971 1410.28 320.248 1372.33 401.104 1299.05 427.568 1225.77 454.033 1144.92 416.084 1118.45 342.807 1091.99 269.531 1129.94 188.674 1203.21 162.21 1221.53 155.594 1240.33 153.004 1258.62 153.984ZM3292.88 153.612C3347.45 153.913 3399.14 186.298 3421.44 239.846 3451.18 311.244 3417.4 393.227 3346 422.962 3274.61 452.697 3192.62 418.923 3162.89 347.526 3133.15 276.128 3166.93 194.144 3238.33 164.409 3256.17 156.976 3274.69 153.511 3292.88 153.612ZM360.148 108.361C363.609 107.982 367.109 108.105 370.533 108.755 375.098 109.621 379.529 111.422 383.554 114.213 399.655 125.381 403.174 148.178 391.415 165.131 379.657 182.083 357.072 186.773 340.971 175.606 324.871 164.438 321.351 141.641 333.11 124.689 339.724 115.153 349.764 109.496 360.148 108.361ZM3207.85 48.6996C3224.22 48.7898 3239.73 58.5052 3246.42 74.5698 3255.34 95.9889 3245.21 120.584 3223.79 129.505 3202.37 138.425 3177.77 128.293 3168.85 106.873 3159.93 85.4546 3170.07 60.8594 3191.48 51.9387 3196.84 49.709 3202.39 48.6693 3207.85 48.6996ZM1178.15 44.3114C1194.62 45.1943 1209.75 55.72 1215.7 72.2073 1223.64 94.1902 1212.26 118.447 1190.28 126.386 1168.29 134.326 1144.04 122.941 1136.1 100.958 1128.16 78.9752 1139.54 54.7185 1161.52 46.7787 1167.02 44.7942 1172.66 44.0171 1178.15 44.3114Z" stroke="#042433" stroke-width="6.875" stroke-miterlimit="8" stroke-opacity="0.301961" fill="none" fill-rule="evenodd"/></g></svg>